<svg width="208" height="208" viewBox="0 0 208 208" fill="none" xmlns="http://www.w3.org/2000/svg">
<circle cx="104" cy="104" r="104" fill="#4664A0"/>
<mask id="mask0_1256_24732" style="mask-type:alpha" maskUnits="userSpaceOnUse" x="0" y="0" width="208" height="208">
<circle cx="104" cy="104" r="104" fill="#4664A0"/>
</mask>
<g mask="url(#mask0_1256_24732)">
<path d="M326.082 116.819C324.32 151.347 278.262 173.524 272.063 175.395C261.629 178.549 228.331 185.212 225.665 149.94C222.999 114.669 298.466 33.7691 280.485 23.3207C272.122 18.4695 246.958 57.6612 231.612 85.5764C212.23 120.848 202.795 163.187 170.569 166.626C158.822 168.761 141.852 160.492 138.672 143.016C135.829 127.414 151.645 103.031 167.7 84.3371C183.754 65.6428 244.442 5.04927 227.991 -4.32432C213.951 -12.3412 185.98 55.3442 172.715 64.9791C167.474 68.7967 155.683 70.7789 154.676 57.7287C153.669 44.6785 178.6 -15.6361 165.835 -20.5842C147.969 -27.5146 160.764 35.6074 142.298 37.5602C129.694 38.8964 119.493 14.8193 116.809 22.5836C112.013 36.4708 139.165 45.26 135.242 55.491C131.004 66.5355 107.605 56.4337 100.837 65.9453C99.6091 67.6632 96.9691 74.2323 113.367 72.9931C129.765 71.7539 142.466 66.6501 146.871 77.3774C155.307 97.8484 117.798 160.189 88.2973 173.768C70.3019 182.052 35.8205 176.34 33.4096 144.546C30.9986 112.752 56.6762 89.8021 81.0205 87.9521C105.365 86.102 106.716 103.164 104.178 110.297C101.18 118.727 80.6211 133.98 86.3592 141.718C96.7518 155.731 142.022 99.4929 136.496 83.0245C132.308 70.5264 116.195 81.703 98.499 82.4372C82.7178 83.092 71.1741 79.248 67.2508 69.0904C63.075 58.2749 71.4325 47.2099 84.3564 46.2261C97.2804 45.2423 119.067 57.2589 121.616 49.5004C124.47 40.8022 102.184 38.5939 75.5496 11.3629C49.7076 -15.0664 75.2266 -40.0743 96.4493 -31.3644C121.008 -21.2831 126.878 20.4987 136.313 19.7851C145.749 19.0715 139.511 4.80847 138.548 -8.40618C137.048 -29.0122 145.596 -41.9479 157.31 -44.5262C173.359 -48.0501 191.234 -32.0398 185.86 -5.45491C182.206 12.6139 157.668 57.5173 166.114 56.8742C174.56 56.2311 206.586 -16.9575 216.494 -29.7728C229.157 -46.1501 260.155 -40.3445 259.779 -14.2441C259.192 27.106 138.081 112.478 179.367 125.949C194.15 130.773 212.797 95.2201 221.698 81.7089C243.669 49.9937 264.296 -18.9221 299.415 -23.5825C317.201 -25.9317 330.995 -15.5245 328.167 6.21802C323.694 40.5761 228.704 119.758 241.244 138.241C249.804 150.848 281.399 108.582 285.386 102.535C298.299 82.9393 327.371 91.4407 326.082 116.819Z" fill="#ECD5DB"/>
</g>
</svg>
