<svg width="208" height="208" viewBox="0 0 208 208" fill="none" xmlns="http://www.w3.org/2000/svg">
<circle cx="104" cy="104" r="104" fill="#4664A0"/>
<mask id="mask0_1198_17135" style="mask-type:alpha" maskUnits="userSpaceOnUse" x="0" y="0" width="208" height="208">
<circle cx="104" cy="104" r="104" fill="#4664A0"/>
</mask>
<g mask="url(#mask0_1198_17135)">
<path d="M181.702 186.923C168.189 192.391 156.974 190.453 152.476 180.085C145.893 161.056 187.192 149.613 180.805 138.009C171.656 121.391 120.33 176.812 109.792 167.726C91.9026 152.297 165.169 81.1594 148.846 73.2451C130.139 64.1719 82.6956 213.471 59.9436 204.559C38.4417 196.136 76.4039 116.955 68.6714 112.454C60.9389 107.953 54.5797 137.907 45.8545 145.849C30.9901 159.383 20.4429 145.737 18.8386 125.236C17.9049 113.32 34.5665 54.3174 48.9458 44.459C71.1685 29.2249 92.5484 55.5756 68.6217 77.4545C44.6943 99.3312 24.2123 139.109 37.1237 138.959C47.6208 138.837 55.4672 81.102 78.4989 90.759C104.823 101.797 48.8784 191.769 61.0169 199.261C70.6488 205.206 98.6025 99.0752 101.026 89.4075C120.906 22.1266 168.809 -4.39321 186.712 33.1834C208.623 79.1749 102 149.385 115.334 158.658C121.765 163.129 154.137 128.136 171.793 121.313C186.376 115.675 205.633 118.702 212.346 133.859C221.139 153.714 211.172 170.836 181.695 186.923L181.702 186.923Z" fill="#ECD5DB"/>
</g>
</svg>
