<svg width="149" height="34" viewBox="0 0 149 34" fill="none" xmlns="http://www.w3.org/2000/svg">
<circle cx="100.748" cy="19.1568" r="9.67483" fill="#ECF0F3"/>
<path d="M1.8284 23.0758H4.97862C5.25041 23.7429 5.60867 24.2988 6.0534 24.7436C7.16525 25.8554 8.59829 26.4113 10.3525 26.4113C11.9338 26.4113 13.0951 26.1519 13.8363 25.633C14.6022 25.1142 14.9852 24.4471 14.9852 23.6317C14.9852 23.187 14.8246 22.804 14.5034 22.4828C14.2069 22.1616 13.7128 21.8775 13.021 21.6304C12.3291 21.3833 11.7114 21.198 11.1679 21.0745C10.649 20.9262 9.88308 20.7533 8.87007 20.5556C4.79331 19.7156 2.75494 17.8995 2.75494 15.1076C2.75494 13.6498 3.37263 12.4268 4.60801 11.4385C5.84339 10.4255 7.57292 9.91898 9.79661 9.91898C12.5639 9.91898 14.7505 10.8455 16.3565 12.6986C16.9989 13.5386 17.4683 14.4652 17.7648 15.4782H14.6146C14.3922 14.984 14.071 14.527 13.651 14.1069C12.7121 13.168 11.4273 12.6986 9.79661 12.6986C8.4871 12.6986 7.47409 12.9457 6.75757 13.4398C6.06576 13.934 5.71985 14.4899 5.71985 15.1076C5.71985 15.5523 5.8681 15.9353 6.16459 16.2565C6.48579 16.5777 6.99229 16.8618 7.68411 17.1089C8.37592 17.356 8.98126 17.5536 9.50012 17.7019C10.0437 17.8254 10.822 17.986 11.835 18.1837C15.9117 19.0237 17.9501 20.8398 17.9501 23.6317C17.9501 25.213 17.283 26.5349 15.9488 27.5973C14.6146 28.6597 12.7492 29.1909 10.3525 29.1909C7.3382 29.1909 5.01568 28.1779 3.38498 26.1519C2.69317 25.2624 2.17431 24.237 1.8284 23.0758ZM22.0182 28.8203V2.87731H24.9831V17.7019H28.6893L34.6191 10.2896H38.1399L31.2836 18.999L38.6958 28.8203H34.9897L28.6893 20.4815H24.9831V28.8203H22.0182ZM41.527 6.17578C41.1317 5.78045 40.934 5.29866 40.934 4.73038C40.934 4.16211 41.1317 3.68031 41.527 3.28499C41.9223 2.88966 42.4041 2.692 42.9724 2.692C43.5407 2.692 44.0225 2.88966 44.4178 3.28499C44.8131 3.68031 45.0108 4.16211 45.0108 4.73038C45.0108 5.29866 44.8131 5.78045 44.4178 6.17578C44.0225 6.5711 43.5407 6.76876 42.9724 6.76876C42.4041 6.76876 41.9223 6.5711 41.527 6.17578ZM41.4899 28.8203V10.2896H44.4548V28.8203H41.4899ZM49.6333 28.8203V10.2896H52.5982V13.0692H52.6353C53.0059 12.4762 53.4877 11.9574 54.0807 11.5126C55.4396 10.4502 57.0456 9.91898 58.8987 9.91898C61.1471 9.91898 62.9384 10.6355 64.2726 12.0685C65.6315 13.4769 66.311 15.4164 66.311 17.8872V28.8203H63.346V18.0725C63.346 16.2935 62.9013 14.9593 62.0118 14.0699C61.1224 13.1557 59.8993 12.6986 58.3427 12.6986C56.6379 12.6986 55.2543 13.2669 54.1919 14.4034C53.1294 15.5153 52.5982 16.9854 52.5982 18.8137V28.8203H49.6333ZM72.8694 26.4484C71.0904 24.62 70.2009 22.3222 70.2009 19.555C70.2009 16.7877 71.0904 14.4899 72.8694 12.6615C74.6483 10.8332 76.8473 9.91898 79.4663 9.91898C82.5053 9.91898 84.9143 11.0061 86.6933 13.1804C87.4592 14.144 88.0151 15.2188 88.3611 16.4047H85.3961C85.1244 15.7376 84.7167 15.1199 84.1731 14.5517C82.9871 13.3163 81.4182 12.6986 79.4663 12.6986C77.6626 12.6986 76.1555 13.341 74.9448 14.6258C73.7588 15.9106 73.1659 17.5536 73.1659 19.555C73.1659 21.5563 73.7836 23.1993 75.0189 24.4841C76.2543 25.7689 77.7368 26.4113 79.4663 26.4113C81.4923 26.4113 83.1107 25.7319 84.3214 24.3729C84.8649 23.8047 85.285 23.1252 85.5814 22.3346H88.5464C88.2252 23.5947 87.6569 24.7436 86.8415 25.7813C84.9638 28.0544 82.5053 29.1909 79.4663 29.1909C76.8473 29.1909 74.6483 28.2767 72.8694 26.4484ZM93.8991 26.4484C92.0708 24.62 91.1566 22.3222 91.1566 19.555C91.1566 16.7877 92.0708 14.4899 93.8991 12.6615C95.7275 10.8332 98.0253 9.91898 100.793 9.91898C103.56 9.91898 105.858 10.8332 107.686 12.6615C109.514 14.4899 110.429 16.7877 110.429 19.555C110.429 22.3222 109.514 24.62 107.686 26.4484C105.858 28.2767 103.56 29.1909 100.793 29.1909C98.0253 29.1909 95.7275 28.2767 93.8991 26.4484ZM96.0116 14.6258C94.7515 15.9106 94.1215 17.5536 94.1215 19.555C94.1215 21.5563 94.7515 23.1993 96.0116 24.4841C97.2717 25.7689 98.8654 26.4113 100.793 26.4113C102.72 26.4113 104.313 25.7689 105.573 24.4841C106.834 23.1993 107.464 21.5563 107.464 19.555C107.464 17.5536 106.834 15.9106 105.573 14.6258C104.313 13.341 102.72 12.6986 100.793 12.6986C98.8654 12.6986 97.2717 13.341 96.0116 14.6258ZM114.491 28.8203V10.2896H117.456V13.2545H117.493C117.839 12.6368 118.259 12.118 118.753 11.6979C119.964 10.6355 121.446 10.1043 123.2 10.1043H125.424V13.0692H123.2C121.52 13.0692 120.136 13.6128 119.049 14.6999C117.987 15.7623 117.456 17.1336 117.456 18.8137V28.8203H114.491ZM130.163 26.4484C128.36 24.62 127.458 22.3222 127.458 19.555C127.458 16.7877 128.36 14.4899 130.163 12.6615C131.967 10.8332 134.216 9.91898 136.909 9.91898C139.602 9.91898 141.85 10.8208 143.654 12.6245C145.457 14.4281 146.359 16.6765 146.359 19.3696V20.4815H130.423C130.621 22.211 131.325 23.6317 132.535 24.7436C133.746 25.8554 135.204 26.4113 136.909 26.4113C138.737 26.4113 140.306 25.8554 141.615 24.7436C142.208 24.2494 142.678 23.6935 143.024 23.0758H145.989C145.544 24.237 144.914 25.2624 144.099 26.1519C142.171 28.1779 139.775 29.1909 136.909 29.1909C134.216 29.1909 131.967 28.2767 130.163 26.4484ZM130.497 17.8872H143.209C142.987 16.4294 142.307 15.2064 141.171 14.2181C140.034 13.2051 138.613 12.6986 136.909 12.6986C135.204 12.6986 133.771 13.2051 132.61 14.2181C131.448 15.2064 130.744 16.4294 130.497 17.8872Z" fill="#ECF0F3"/>
<path d="M105.637 19.071C104.611 17.5752 102.858 21.5436 101.223 20.0787C99.546 18.5764 103.638 15.6361 102.318 14.6842C101.174 13.8582 99.4903 17.5087 98.1991 16.7044C97.738 16.4171 96.9886 14.7053 98.6752 11.4193C99.1374 10.6896 99.397 11.2126 99.3694 11.5816C99.3115 12.6122 98.9552 14.1364 99.4005 14.4588C100.166 15.0131 102.64 10.9772 104.046 12.4736C105.365 13.8768 101.617 16.6476 103.024 17.9103C104.112 18.8862 106.788 14.705 108.491 16.6844C110.56 19.09 106.477 29.3864 103.251 26.6456C100.837 24.5957 106.834 20.815 105.637 19.071Z" fill="#2A3A5E"/>
</svg>
