<svg width="1512" height="739" viewBox="0 0 1512 739" fill="none" xmlns="http://www.w3.org/2000/svg">
<rect y="0.707031" width="1512" height="738.293" fill="#2A3A5E"/>
<path d="M141.788 83.5187C187.372 82.0483 185.166 168.804 132.965 193.802C80.0295 218.064 101.351 223.946 121.202 219.534C141.053 214.388 179.284 159.982 200.606 194.537C221.192 229.827 117.526 289.38 141.053 310.702C164.58 331.288 242.513 235.709 264.57 242.326C286.626 249.678 246.189 320.995 269.716 313.642C292.508 305.555 346.179 100.429 395.439 124.691C444.698 148.953 353.531 311.437 354.266 364.373C355.737 416.573 388.822 562.882 276.333 559.206C164.58 555.53 289.567 394.517 324.122 348.933C359.413 303.349 404.997 173.951 381.469 179.832C357.942 185.714 304.271 346.727 269.716 343.051C234.426 339.375 260.158 281.293 241.043 279.822C222.662 279.087 160.904 378.342 110.174 340.846C60.1786 303.349 180.755 237.915 161.639 226.151C143.258 214.388 87.3817 309.231 56.5025 263.647C26.3585 218.064 34.4459 87.1948 141.788 83.5187Z" fill="#4664A0"/>
<path d="M864.696 327.612C876.46 382.753 985.272 299.673 962.481 396.722C941.159 489.36 885.283 376.871 837.493 415.838C802.203 444.511 892.635 540.09 805.879 550.383C719.858 561.411 770.588 484.213 722.064 468.038C673.539 451.864 606.634 557.735 569.873 491.565C533.113 425.396 641.925 402.604 626.485 362.902C611.046 323.2 549.287 420.249 548.552 332.758C546.346 221.005 675.01 277.617 705.889 226.886C736.768 176.156 632.367 108.516 697.066 82.0483C761.031 55.5804 740.444 108.516 780.881 112.927C821.319 117.339 856.609 57.0508 888.224 90.8709C941.894 151.159 823.524 185.714 856.609 207.771C890.429 229.092 942.63 121.75 973.509 184.244C1035.27 312.907 853.668 271.735 864.696 327.612ZM800.732 329.817C790.439 293.056 927.19 293.056 899.987 244.532C872.784 196.007 859.55 260.707 827.2 236.444C794.851 212.182 882.342 171.01 847.786 146.748C813.231 122.485 822.789 148.218 791.175 144.542C758.825 140.866 720.593 110.722 728.681 165.128C736.768 218.799 753.678 226.151 727.946 255.56C702.948 285.704 586.048 266.588 603.694 312.907C620.604 359.226 726.475 277.617 730.151 323.935C733.827 369.519 601.488 388.635 641.19 423.925C681.627 459.951 697.066 360.696 750.737 388.635C790.439 408.486 731.622 495.242 799.262 484.213C860.285 473.185 739.709 403.339 794.851 374.666C838.229 352.609 929.396 435.689 920.573 390.84C911.015 345.992 811.025 366.578 800.732 329.817Z" fill="#4664A0"/>
<path d="M1183.69 83.5187C1229.28 82.0483 1227.07 168.804 1174.87 193.802C1121.94 218.064 1143.26 223.946 1163.11 219.534C1182.96 214.388 1221.19 159.982 1242.51 194.537C1263.1 229.827 1159.43 289.38 1182.96 310.702C1206.49 331.288 1284.42 235.709 1306.48 242.326C1328.53 249.678 1288.1 320.995 1311.62 313.642C1334.41 305.555 1388.09 100.429 1437.34 124.691C1486.6 148.953 1395.44 311.437 1396.17 364.373C1397.64 416.573 1430.73 562.882 1318.24 559.206C1206.49 555.53 1331.47 394.517 1366.03 348.933C1401.32 303.349 1446.9 173.951 1423.38 179.832C1399.85 185.714 1346.18 346.727 1311.62 343.051C1276.33 339.375 1302.06 281.293 1282.95 279.822C1264.57 279.087 1202.81 378.342 1152.08 340.846C1102.08 303.349 1222.66 237.915 1203.55 226.151C1185.16 214.388 1129.29 309.231 1098.41 263.647C1068.26 218.064 1076.35 87.1948 1183.69 83.5187Z" fill="#4664A0"/>
</svg>
