<svg width="209" height="209" viewBox="0 0 209 209" fill="none" xmlns="http://www.w3.org/2000/svg">
<circle cx="104.49" cy="104.82" r="104" fill="#4664A0"/>
<mask id="mask0_780_7874" style="mask-type:alpha" maskUnits="userSpaceOnUse" x="0" y="0" width="209" height="209">
<circle cx="104.49" cy="104.82" r="104" fill="#4664A0"/>
</mask>
<g mask="url(#mask0_780_7874)">
<path d="M207.764 63.742C210.899 100.431 180.839 119.351 158.806 103.555C150.603 97.6738 138.387 69.8862 124.387 69.8862C110.387 69.8862 134.636 110.514 113.64 113.918C91.6937 117.476 68.7391 59.8533 57.0895 69.5865C39.688 84.1246 128.69 144.83 109.574 160.463C98.9838 169.123 61.5835 126.495 51.6486 136.43C41.7109 146.365 110.981 175.948 119.397 201.234C127.962 226.968 110.362 240.408 93.3131 240.408C53.9068 240.408 18.1119 138.557 38.2087 118.46C58.3055 98.363 77.049 145.11 86.5357 135.623C96.0223 126.137 11.0179 68.4013 35.407 48.7192C56.8626 31.4045 89.4271 90.4761 105.506 84.0686C115.147 80.2274 96.507 52.9946 107.764 45.2871C128.612 33.8308 143.744 79.1908 153.724 69.2138C163.704 59.2369 145.322 23.4392 165.92 14.653C191.53 3.72906 206.071 44.3989 207.764 63.7449V63.742Z" fill="#ECD5DB"/>
</g>
</svg>
