<svg width="32" height="33" viewBox="0 0 32 33" fill="none" xmlns="http://www.w3.org/2000/svg">
<rect width="32" height="32" transform="translate(0 0.476074)" fill="#4664A0"/>
<path fill-rule="evenodd" clip-rule="evenodd" d="M17.9904 11.2856C16.3046 11.9982 12.9352 13.4729 7.88228 15.7099C7.06177 16.0415 6.63195 16.3658 6.59282 16.683C6.52669 17.219 7.18726 17.43 8.08678 17.7174C8.20913 17.7565 8.33591 17.797 8.46588 17.84C9.35087 18.1323 10.5413 18.4743 11.1602 18.4879C11.7216 18.5002 12.3481 18.265 13.0399 17.7823C17.761 14.5441 20.198 12.9073 20.351 12.872C20.459 12.8471 20.6085 12.8158 20.7099 12.9073C20.8112 12.9989 20.8013 13.1722 20.7905 13.2187C20.7251 13.5022 18.1321 15.9517 16.7903 17.2194C16.372 17.6146 16.0752 17.8949 16.0146 17.9589C15.8787 18.1023 15.7402 18.238 15.6071 18.3683C14.7849 19.1737 14.1684 19.7777 15.6412 20.7639C16.349 21.2379 16.9154 21.6298 17.4804 22.0208C18.0975 22.4478 18.713 22.8737 19.5094 23.4041C19.7122 23.5393 19.906 23.6796 20.0947 23.8164C20.8129 24.3366 21.4581 24.804 22.2551 24.7294C22.7183 24.6861 23.1967 24.2436 23.4397 22.9237C24.0139 19.8045 25.1426 13.0462 25.4034 10.2613C25.4263 10.0173 25.3975 9.70499 25.3744 9.56791C25.3513 9.43083 25.3031 9.23552 25.1278 9.09094C24.9201 8.91971 24.5995 8.88361 24.4561 8.88617C23.8042 8.89784 22.804 9.25124 17.9904 11.2856Z" fill="#ECF0F3"/>
</svg>
