<svg width="267" height="556" viewBox="0 0 267 556" fill="none" xmlns="http://www.w3.org/2000/svg">
<mask id="mask0_864_26546" style="mask-type:alpha" maskUnits="userSpaceOnUse" x="0" y="0" width="267" height="556">
<rect width="267" height="556" fill="#D9D9D9"/>
</mask>
<g mask="url(#mask0_864_26546)">
<rect width="267" height="556" fill="#ECD5DB"/>
<path d="M-58.9191 529.255C-125.688 525.847 -168.572 436.785 -172.19 424.797C-178.288 404.621 -191.173 340.232 -122.968 335.076C-54.7624 329.919 101.677 475.853 121.881 441.083C131.262 424.911 55.4758 376.251 1.49529 346.575C-66.7101 309.096 -148.584 290.851 -155.233 228.534C-159.362 205.82 -143.371 173.003 -109.578 166.853C-79.4074 161.357 -32.2582 191.941 3.89162 222.986C40.0414 254.031 157.213 371.384 175.339 339.573C190.842 312.424 59.9562 258.335 41.3248 232.685C33.9427 222.549 30.1096 199.749 55.3452 197.802C80.5808 195.854 197.213 244.065 206.782 219.38C220.183 184.832 98.1219 209.573 94.3457 173.866C91.7619 149.494 138.321 129.767 123.306 124.576C96.4524 115.303 79.4565 167.807 59.6723 160.221C38.3152 152.027 57.8495 106.78 39.4565 93.6906C36.1346 91.317 23.4316 86.2119 25.828 117.921C28.2243 149.63 38.0937 174.19 17.3499 182.708C-22.2355 199.023 -142.786 126.49 -169.044 69.4431C-185.063 34.6447 -174.018 -32.0331 -112.536 -36.6952C-51.0543 -41.3573 -6.67621 8.29614 -3.09872 55.3715C0.47879 102.447 -32.5137 105.059 -46.3069 100.153C-62.6101 94.355 -92.1047 54.5993 -107.068 65.6952C-134.166 85.7917 -25.4155 173.333 6.42996 162.646C30.598 154.548 8.98532 123.39 7.56569 89.1704C6.29936 58.6538 13.7326 36.3313 33.3748 28.7447C54.289 20.6698 75.6859 36.831 77.5882 61.8224C79.4905 86.8138 56.2538 128.943 71.2566 133.872C88.0765 139.392 92.3468 96.2971 145.004 44.7924C196.111 -5.17911 244.47 44.1677 227.628 85.2068C208.133 132.697 127.338 144.048 128.718 162.293C130.098 180.539 157.679 168.477 183.232 166.615C223.079 163.713 248.093 180.243 253.079 202.895C259.893 233.929 228.934 268.494 177.525 258.102C142.585 251.038 55.7541 203.588 56.9977 219.92C58.2413 236.251 199.768 298.182 224.55 317.341C256.219 341.827 244.993 401.77 194.521 401.044C114.561 399.908 -50.5262 165.712 -76.5738 245.547C-85.9037 274.133 -17.1532 310.192 8.97395 327.404C70.3026 369.891 203.567 409.777 212.579 477.687C217.122 512.083 196.997 538.755 154.953 533.286C88.5138 524.638 -64.6034 340.953 -100.344 365.2C-124.722 381.753 -42.9907 442.849 -31.2985 450.561C6.59465 475.529 -9.84485 531.747 -58.9191 529.255Z" fill="#ECF0F3"/>
</g>
</svg>
