<svg width="32" height="32" viewBox="0 0 32 32" fill="none" xmlns="http://www.w3.org/2000/svg">
<rect width="32" height="32" fill="#4664A0"/>
<path fill-rule="evenodd" clip-rule="evenodd" d="M5.13159 15.9684C5.14866 9.98608 9.99892 5.14072 15.9831 5.13159C15.5287 10.9214 10.9111 15.5371 5.13159 15.9684ZM15.983 26.8685C9.99933 26.8593 5.1494 22.0147 5.1316 16.0331C10.9106 16.4643 15.528 21.0793 15.983 26.8685ZM26.8684 16.0361C26.849 22.0031 22.021 26.8379 16.0566 26.8683C16.5105 21.0925 21.1079 16.4853 26.8684 16.0361ZM26.8684 15.9653C21.1074 15.5161 16.5098 10.9083 16.0565 5.13172C22.0214 5.16206 26.8497 9.99763 26.8684 15.9653Z" fill="#ECF0F3"/>
</svg>
