<svg width="208" height="208" viewBox="0 0 208 208" fill="none" xmlns="http://www.w3.org/2000/svg">
<circle cx="104" cy="104" r="104" fill="#4664A0"/>
<mask id="mask0_1264_24777" style="mask-type:alpha" maskUnits="userSpaceOnUse" x="0" y="0" width="208" height="208">
<circle cx="104" cy="104" r="104" fill="#4664A0"/>
</mask>
<g mask="url(#mask0_1264_24777)">
<path d="M175.618 186.529C162.105 191.997 150.891 190.059 146.392 179.691C139.809 160.662 181.108 149.219 174.721 137.615C165.572 120.996 114.246 176.418 103.708 167.331C85.8186 151.903 159.085 80.7653 142.762 72.8511C124.055 63.7779 76.6117 213.077 53.8596 204.164C32.3577 195.742 70.3199 116.561 62.5874 112.06C54.8549 107.559 48.4958 137.513 39.7705 145.455C24.9061 158.989 14.3589 145.343 12.7546 124.842C11.821 112.926 20.5 62.5 42.8618 44.065C65.0845 28.8309 86.4645 55.1816 62.5377 77.0605C38.6103 98.9372 18.1283 138.715 31.0397 138.565C41.5369 138.443 49.3832 80.708 72.4149 90.365C98.7389 101.403 42.7944 191.375 54.9329 198.867C64.5648 204.812 92.5185 98.6811 94.9422 89.0135C114.822 21.7325 162.725 -4.78725 180.628 32.7894C202.539 78.7809 95.9164 148.991 109.251 158.264C115.681 162.735 148.053 127.742 165.709 120.919C180.292 115.281 199.549 118.308 206.262 133.465C215.055 153.32 205.088 170.442 175.611 186.529L175.618 186.529Z" fill="#ECD5DB"/>
</g>
</svg>
