<svg width="97" height="406" viewBox="0 0 97 406" fill="none" xmlns="http://www.w3.org/2000/svg">
<mask id="mask0_864_26555" style="mask-type:alpha" maskUnits="userSpaceOnUse" x="0" y="0" width="97" height="406">
<rect width="97" height="406" fill="#D9D9D9"/>
</mask>
<g mask="url(#mask0_864_26555)">
<rect width="267" height="406" rx="24" fill="#ECD5DB"/>
<path d="M-99.7467 364.575C-140.907 362.474 -167.344 307.57 -169.574 300.181C-173.333 287.743 -181.276 248.049 -139.23 244.871C-97.1843 241.692 -0.74543 331.655 11.7098 310.22C17.4929 300.251 -29.2266 270.254 -62.5035 251.959C-104.55 228.855 -155.022 217.608 -159.121 179.192C-161.666 165.189 -151.808 144.959 -130.976 141.168C-112.377 137.779 -83.3113 156.634 -61.0263 175.772C-38.7413 194.91 33.4907 267.254 44.6647 247.643C54.2215 230.907 -26.4646 197.563 -37.9501 181.751C-42.5009 175.502 -44.8639 161.447 -29.3071 160.246C-13.7503 159.046 58.1492 188.766 64.0477 173.549C72.3092 152.251 -2.93684 167.503 -5.26476 145.491C-6.85754 130.467 21.8441 118.305 12.5885 115.106C-3.96602 109.389 -14.4434 141.756 -26.6396 137.079C-39.8055 132.028 -27.7633 104.135 -39.1018 96.0658C-41.1497 94.6026 -48.9806 91.4555 -47.5033 111.003C-46.0261 130.551 -39.942 145.691 -52.7298 150.942C-77.1327 160.999 -151.448 116.285 -167.634 81.1181C-177.51 59.6663 -170.701 18.5619 -132.8 15.6879C-94.8984 12.8139 -67.541 43.4234 -65.3356 72.4436C-63.1302 101.464 -83.4688 103.074 -91.9718 100.05C-102.022 96.4754 -120.204 71.9675 -129.429 78.8077C-146.134 91.1965 -79.093 145.162 -59.4615 138.574C-44.5628 133.582 -57.8862 114.374 -58.7614 93.2793C-59.542 74.467 -54.9597 60.706 -42.851 56.0291C-29.9582 51.0512 -16.7678 61.014 -15.5951 76.4203C-14.4224 91.8266 -28.747 117.798 -19.4983 120.836C-9.12945 124.239 -6.49698 97.6726 25.9644 65.9219C57.47 35.1164 87.2814 65.5368 76.8985 90.8359C64.8809 120.112 15.0739 127.109 15.9246 138.357C16.7752 149.604 33.7778 142.169 49.5306 141.021C74.0945 139.232 89.5148 149.422 92.5884 163.386C96.7891 182.517 77.7037 203.826 46.0125 197.42C24.4731 193.065 -29.055 163.814 -28.2884 173.881C-27.5218 183.949 59.7244 222.127 75.0012 233.938C94.5242 249.033 87.6035 285.985 56.4899 285.537C7.19749 284.837 -94.5728 140.464 -110.63 189.68C-116.382 207.302 -73.9996 229.531 -57.8932 240.141C-20.0864 266.333 62.0664 290.921 67.6219 332.785C70.4224 353.989 58.0161 370.431 32.0975 367.06C-8.85989 361.729 -103.251 248.494 -125.284 263.441C-140.312 273.646 -89.9275 311.309 -82.7197 316.063C-59.36 331.455 -69.4943 366.111 -99.7467 364.575Z" fill="#ECF0F3"/>
</g>
</svg>
