<svg width="209" height="209" viewBox="0 0 209 209" fill="none" xmlns="http://www.w3.org/2000/svg">
<circle cx="104.49" cy="104.82" r="104" fill="#4664A0"/>
<mask id="mask0_779_7302" style="mask-type:alpha" maskUnits="userSpaceOnUse" x="0" y="0" width="209" height="209">
<circle cx="104.49" cy="104.82" r="104" fill="#4664A0"/>
</mask>
<g mask="url(#mask0_779_7302)">
<path d="M326.572 117.64C324.81 152.168 278.753 174.345 272.553 176.216C262.12 179.37 228.822 186.033 226.155 150.761C223.489 115.49 298.956 34.5899 280.976 24.1415C272.612 19.2903 247.449 58.482 232.102 86.3972C212.72 121.669 203.285 164.008 171.059 167.447C159.313 169.582 142.342 161.312 139.162 143.837C136.319 128.235 152.136 103.852 168.19 85.1579C184.244 66.4636 244.932 5.87007 228.481 -3.50352C214.441 -11.5204 186.47 56.165 173.206 65.7999C167.964 69.6175 156.173 71.5997 155.166 58.5495C154.159 45.4993 179.091 -14.8153 166.325 -19.7634C148.459 -26.6938 161.254 36.4282 142.788 38.381C130.185 39.7172 119.983 15.6401 117.299 23.4044C112.503 37.2916 139.655 46.0808 135.732 56.3118C131.494 67.3563 108.096 57.2545 101.327 66.7661C100.099 68.484 97.4593 75.0531 113.857 73.8139C130.255 72.5747 142.956 67.4709 147.361 78.1982C155.798 98.6692 118.289 161.01 88.7876 174.589C70.7922 182.873 36.3107 177.161 33.8998 145.367C31.4889 113.572 57.1664 90.6229 81.5107 88.7729C105.855 86.9228 107.206 103.984 104.669 111.117C101.67 119.548 81.1113 134.801 86.8494 142.539C97.242 156.552 142.512 100.314 136.986 83.8453C132.798 71.3472 116.685 82.5238 98.9893 83.258C83.208 83.9128 71.6643 80.0688 67.741 69.9112C63.5652 59.0957 71.9227 48.0307 84.8467 47.0469C97.7706 46.0631 119.557 58.0797 122.106 50.3212C124.96 41.623 102.675 39.4147 76.0398 12.1837C50.1979 -14.2456 75.7168 -39.2535 96.9395 -30.5436C121.498 -20.4623 127.368 21.3195 136.804 20.6059C146.239 19.8923 140.002 5.62927 139.038 -7.58538C137.538 -28.1914 146.086 -41.1271 157.8 -43.7054C173.849 -47.2293 191.724 -31.219 186.35 -4.63411C182.697 13.4347 158.159 58.3381 166.604 57.695C175.05 57.0519 207.076 -16.1367 216.984 -28.952C229.647 -45.3293 260.646 -39.5237 260.27 -13.4233C259.682 27.9268 138.572 113.299 179.857 126.769C194.64 131.594 213.287 96.0409 222.188 82.5297C244.16 50.8146 264.786 -18.1013 299.905 -22.7617C317.692 -25.1109 331.485 -14.7037 328.657 7.03883C324.184 41.3969 229.195 120.579 241.734 139.062C250.294 151.669 281.889 109.402 285.877 103.356C298.789 83.7601 327.861 92.2615 326.572 117.64Z" fill="#ECD5DB"/>
</g>
</svg>
