<svg width="209" height="209" viewBox="0 0 209 209" fill="none" xmlns="http://www.w3.org/2000/svg">
<circle cx="104.49" cy="104.82" r="104" fill="#4664A0"/>
<mask id="mask0_780_7669" style="mask-type:alpha" maskUnits="userSpaceOnUse" x="0" y="0" width="209" height="209">
<circle cx="104.49" cy="104.82" r="104" fill="#4664A0"/>
</mask>
<g mask="url(#mask0_780_7669)">
<path d="M27.0593 120.127C10.8655 136.228 -9.36297 127.681 -15.2578 106.825C-18.5701 95.1032 -15.3763 51.061 18.5153 38.2675C42.5339 29.2003 60.0888 42.1093 66.3421 61.237C75.4845 89.1979 48.9826 209.676 68.8393 213.056C92.7385 217.124 75.9549 142.761 97.3066 135.172C116.499 128.349 118.855 173.224 127.066 170.816C136.103 168.168 124.157 115.164 118.72 98.9262C101.591 47.7686 83.7481 21.6142 102.648 -5.21286C116.49 -24.8645 147.344 -19.4078 155.619 13.8224C160.587 33.7808 157.931 148.153 167.555 161.17C177.18 174.187 184.863 161.596 177.175 143.172C167.954 121.071 164.618 97.6209 184.979 90.8867C198.691 86.351 212.924 92.9003 218.598 109.749C226.434 133.023 221.508 169.279 198.561 181.938C175.614 194.597 162.028 182.244 154.46 162.896C145.498 139.983 146.572 29.5261 128.404 30.3437C97.7104 31.7177 171.197 188.182 135.003 208.457C115.553 219.354 115.072 167.276 105.162 161.82C89.9379 153.439 113.083 215.904 94.9278 232.668C77.046 249.182 57.9144 240.869 48.7236 220.893C36.6571 194.654 59.0513 77.1973 44.6952 71.3397C26.2634 63.8176 44.3895 105.021 27.0543 120.13L27.0593 120.127Z" fill="#ECD5DB"/>
</g>
</svg>
