<svg width="26" height="26" viewBox="0 0 26 26" fill="none" xmlns="http://www.w3.org/2000/svg">
<circle cx="13" cy="13" r="13" fill="#333333"/>
<path d="M19.5051 8.99762L18.9942 8.94976L19.5051 8.99761C19.5263 8.77167 19.501 8.50919 19.4802 8.38569C19.4592 8.26054 19.3997 7.9677 19.1303 7.74558L18.8038 8.14151L19.1303 7.74558C18.977 7.61923 18.8041 7.55814 18.6763 7.52711C18.5455 7.49534 18.4214 7.48539 18.3308 7.48701C18.012 7.49272 17.6561 7.58419 17.0076 7.82333C16.3499 8.06582 15.3351 8.48285 13.6749 9.18457C12.5067 9.67828 10.1783 10.6974 6.69347 12.2402C6.39484 12.3614 6.13503 12.4934 5.93694 12.6429C5.74944 12.7844 5.53292 13.0053 5.49385 13.322C5.46767 13.5342 5.51527 13.7367 5.63125 13.9101C5.73782 14.0693 5.88347 14.1763 6.01211 14.2507C6.24702 14.3865 6.56195 14.487 6.84245 14.5765C6.85461 14.5803 6.86671 14.5842 6.87873 14.588C6.96356 14.6152 7.04878 14.6424 7.13579 14.6711C7.44849 14.7744 7.81884 14.8877 8.16933 14.977C8.50771 15.0633 8.86925 15.1383 9.14624 15.1443C9.68454 15.1562 10.2236 14.9314 10.7476 14.5661C11.7226 13.8973 12.556 13.3278 13.2479 12.8575C13.0462 13.0489 12.8567 13.228 12.6934 13.3822L12.6502 13.423C12.3922 13.6667 12.1895 13.8582 12.1375 13.913L12.1375 13.913C12.0513 14.004 11.9624 14.0912 11.8695 14.1822L11.8583 14.1932C11.7248 14.324 11.5738 14.4718 11.4513 14.6227C11.3264 14.7766 11.191 14.9806 11.1423 15.2313C11.0277 15.8214 11.4308 16.2708 11.9667 16.6296C12.4519 16.9545 12.8402 17.2232 13.2304 17.4932L13.2311 17.4937C13.6571 17.7885 14.0853 18.0848 14.6392 18.4537C14.7695 18.5406 14.8953 18.6316 15.0269 18.7269C15.0452 18.7402 15.0638 18.7537 15.0826 18.7674C15.5323 19.0942 16.1217 19.5226 16.8677 19.4529C17.5591 19.3882 17.9669 18.7427 18.1427 17.7878C18.5389 15.6353 19.3226 10.9467 19.5051 8.99762Z" fill="#E2E9FF" stroke="#333333" stroke-width="1.02632"/>
</svg>
